<!-- Discrete Hilbert transform impulse response -->
<svg xmlns="http://www.w3.org/2000/svg" viewBox="0 0 800 400" preserveAspectRatio="xMidYMid meet" overflow="visible" focusable="false">
  <g stroke="currentColor">
    <line x1="50" y1="200" x2="750" y2="200" stroke-width="1"/>
    <line x1="450" y1="200" x2="450" y2="100" stroke-width="2"/>
    <line x1="420" y1="100" x2="440" y2="100" stroke-width="1"/>
    <line x1="550" y1="200" x2="550" y2="150" stroke-width="2"/>
    <line x1="520" y1="150" x2="540" y2="150" stroke-width="1"/>
    <line x1="650" y1="200" x2="650" y2="160" stroke-width="2"/>
    <line x1="620" y1="160" x2="640" y2="160" stroke-width="1"/>
    <line x1="750" y1="200" x2="750" y2="165" stroke-width="2"/>
    <line x1="720" y1="165" x2="740" y2="165" stroke-width="1"/>
    <line x1="350" y1="200" x2="350" y2="300" stroke-width="2"/>
    <line x1="375" y1="300" x2="395" y2="300" stroke-width="1"/>
    <line x1="250" y1="200" x2="250" y2="250" stroke-width="2"/>
    <line x1="275" y1="250" x2="295" y2="250" stroke-width="1"/>
    <line x1="150" y1="200" x2="150" y2="240" stroke-width="2"/>
    <line x1="175" y1="240" x2="195" y2="240" stroke-width="1"/>
    <line x1="50" y1="200" x2="50" y2="235" stroke-width="2"/>
    <line x1="75" y1="235" x2="95" y2="235" stroke-width="1"/>
  </g>
  <g fill="currentColor">
    <circle cx="50" cy="235" r="4"/>
    <circle cx="100" cy="200" r="4"/>
    <circle cx="150" cy="240" r="4"/>
    <circle cx="200" cy="200" r="4"/>
    <circle cx="250" cy="250" r="4"/>
    <circle cx="300" cy="200" r="4"/>
    <circle cx="350" cy="300" r="4"/>
    <circle cx="400" cy="200" r="4"/>
    <circle cx="450" cy="100" r="4"/>
    <circle cx="500" cy="200" r="4"/>
    <circle cx="550" cy="150" r="4"/>
    <circle cx="600" cy="200" r="4"/>
    <circle cx="650" cy="160" r="4"/>
    <circle cx="700" cy="200" r="4"/>
    <circle cx="750" cy="165" r="4"/>
  </g>
  <g stroke-width="0" text-anchor="middle" font-family="serif" font-weight="200" font-size="20" fill="currentColor" xml:space="preserve">
    <text x="30" y="200" font-size="24">...</text>
    <text x="770" y="200" font-size="24">...</text>
    <text x="430" y="95">2</text>
    <text x="430" y="115">π</text>
    <text x="530" y="145">2</text>
    <text x="530" y="170">3π</text>
    <text x="630" y="155">2</text>
    <text x="630" y="180">5π</text>
    <text x="730" y="160">2</text>
    <text x="730" y="185">7π</text>
    <text x="385" y="295">2</text>
    <text x="365" y="305">-</text>
    <text x="385" y="315">π</text>
    <text x="285" y="245">2</text>
    <text x="265" y="255">-</text>
    <text x="285" y="270">3π</text>
    <text x="185" y="235">2</text>
    <text x="165" y="245">-</text>
    <text x="185" y="260">5π</text>
    <text x="85" y="230">2</text>
    <text x="65" y="240">-</text>
    <text x="85" y="255">7π</text>
    <text x="400" y="225">0</text>
    <text x="450" y="225">1</text>
    <text x="500" y="225">2</text>
    <text x="550" y="225">3</text>
    <text x="600" y="225">4</text>
    <text x="650" y="225">5</text>
    <text x="700" y="225">6</text>
    <text x="750" y="225">7</text>
    <text x="350" y="190">-1</text>
    <text x="300" y="190">-2</text>
    <text x="250" y="190">-3</text>
    <text x="200" y="190">-4</text>
    <text x="150" y="190">-5</text>
    <text x="100" y="190">-6</text>
    <text x="50" y="190">-7</text>
  </g>
</svg>
